<svg width="19" height="19" viewBox="0 0 19 19" fill="none" xmlns="http://www.w3.org/2000/svg">
<g id="material-symbols:award-star-rounded">
<path id="Vector" d="M12.1791 15.5L10.7166 16.9437C10.4291 17.2312 10.0791 17.375 9.66663 17.375C9.25413 17.375 8.90413 17.2312 8.61663 16.9437L7.15413 15.5H5.16663C4.75413 15.5 4.40088 15.353 4.10688 15.059C3.81288 14.765 3.66613 14.412 3.66663 14V12.0125L2.22288 10.55C1.93538 10.2625 1.79163 9.9125 1.79163 9.5C1.79163 9.0875 1.93538 8.7375 2.22288 8.45L3.66663 6.9875V5C3.66663 4.5875 3.81363 4.23425 4.10763 3.94025C4.40163 3.64625 4.75463 3.4995 5.16663 3.5H7.15413L8.61663 2.05625C8.90413 1.76875 9.25413 1.625 9.66663 1.625C10.0791 1.625 10.4291 1.76875 10.7166 2.05625L12.1791 3.5H14.1666C14.5791 3.5 14.9324 3.647 15.2264 3.941C15.5204 4.235 15.6671 4.588 15.6666 5V6.9875L17.1104 8.45C17.3979 8.7375 17.5416 9.0875 17.5416 9.5C17.5416 9.9125 17.3979 10.2625 17.1104 10.55L15.6666 12.0125V14C15.6666 14.4125 15.5196 14.7657 15.2256 15.0597C14.9316 15.3538 14.5786 15.5005 14.1666 15.5H12.1791ZM9.66663 11.3563L11.1104 12.2188C11.2479 12.3062 11.3821 12.3033 11.5131 12.2098C11.6441 12.1163 11.6911 11.988 11.6541 11.825L11.2791 10.1938L12.5541 9.0875C12.6791 8.975 12.7166 8.84075 12.6666 8.68475C12.6166 8.52875 12.5041 8.44425 12.3291 8.43125L10.6604 8.3L10.0041 6.74375C9.94163 6.59375 9.82913 6.51875 9.66663 6.51875C9.50413 6.51875 9.39163 6.59375 9.32913 6.74375L8.67288 8.3L7.00413 8.43125C6.82913 8.44375 6.71663 8.52825 6.66663 8.68475C6.61663 8.84125 6.65413 8.9755 6.77913 9.0875L8.05413 10.1938L7.67913 11.825C7.64163 11.9875 7.68863 12.1158 7.82013 12.2098C7.95163 12.3038 8.08588 12.3068 8.22288 12.2188L9.66663 11.3563Z" fill="#B16C4C"/>
</g>
</svg>
